<svg height="512" viewBox="0 0 60 60" width="512" xmlns="http://www.w3.org/2000/svg"><g id="Page-1" fill="none" fill-rule="evenodd"><g id="063---Astronomy" fill-rule="nonzero" transform="translate(0 -1)"><path id="Shape" d="m6 27.5v7c0 1.3807119-1.11928813 2.5-2.5 2.5s-2.5-1.1192881-2.5-2.5v-7c0-1.3807119 1.11928813-2.5 2.5-2.5s2.5 1.1192881 2.5 2.5z" fill="#9e9e9e"/><path id="Rectangle-path" d="m6 28h5v6h-5z" fill="#37474f"/><path id="Shape" d="m18 26v10h-5c-1.1032019-.0032948-1.9967052-.8967981-2-2v-6c.0032948-1.1032019.8967981-1.9967052 2-2z" fill="#7f8e94"/><rect id="Rectangle-path" fill="#ffdc00" height="16" rx="2" width="36" x="18" y="23"/><path id="Shape" d="m52 23h-3c1.1032019.0032948 1.9967052.8967981 2 2v12c-.0032948 1.1032019-.8967981 1.9967052-2 2h3c1.1032019-.0032948 1.9967052-.8967981 2-2v-12c-.0032948-1.1032019-.8967981-1.9967052-2-2z" fill="#fec108"/><path id="Shape" d="m59 31c0 3.31-2.24 6-5 6v-12c2.76 0 5 2.69 5 6z" fill="#00bcd4"/><path id="Shape" d="m30 43-2 3.2-8.05 12.86c-.3651335.5871274-1.0086011.9429272-1.7.94-.3740588-.001614-.7405754-.1053451-1.06-.3-.9345723-.5892824-1.2163095-1.8235598-.63-2.76l8.71-13.94z" fill="#9e9e9e"/><path id="Shape" d="m42.81 59.7c-.3194246.1946549-.6859412.298386-1.06.3-.6913989.0029272-1.3348665-.3528726-1.7-.94l-8.05-12.86-2-3.2h4.73l8.71 13.94c.5863095.9364402.3045723 2.1707176-.63 2.76z" fill="#9e9e9e"/><path id="Shape" d="m37 39v2c-.0032948 1.1032019-.8967981 1.9967052-2 2h-10c-1.1032019-.0032948-1.9967052-.8967981-2-2v-2z" fill="#707070"/><path id="Shape" d="m32 46.2v11.8c-.0032948 1.1032019-.8967981 1.9967052-2 2-1.1011688-.0081672-1.9918328-.8988312-2-2v-11.8l2-3.2z" fill="#707070"/><path id="Shape" d="m35 17v2.29c.0009696.465707-.1087081.9249823-.32 1.34l-1.18 2.37h-5.5v-2c0-.5522847-.4477153-1-1-1-1.6568542 0-3-1.3431458-3-3s1.3431458-3 3-3h5c1.6568542 0 3 1.3431458 3 3z" fill="#60a917"/><path id="Shape" d="m46 18c.002655 1.6987414-.2674491 3.3868915-.8 5h-11.7l1.18-2.37c.2112919-.4150177.3209696-.874293.32-1.34v-2.29c0-1.6568542-1.3431458-3-3-3h-5c-1.6568542 0-3 1.3431458-3 3s1.3431458 3 3 3c.5522847 0 1 .4477153 1 1v2h-8c-1.1032019.0032948-1.9967052.8967981-2 2v1h-1.86c-2.2737564-3.9460165-2.7610136-8.673138-1.34-13h4.73c.9468732.001865 1.7887234-.6023337 2.09-1.5.2929458-.8994285 1.1340863-1.50602028 2.08-1.5 2.3748244 0 4.3-1.92517558 4.3-4.3v-3.57c.6629368-.08874277 1.3311534-.13217685 2-.13 2.4254821-.00330647 4.8196855.54736031 7 1.61v3.67c-.0011671 1.02610699.6559764 1.93723846 1.63 2.26.8168404.27404047 1.3679973 1.0384186 1.37 1.9v1.56c.0032948 1.1032019.8967981 1.9967052 2 2h3.72c.1846777.9893614.278402 1.9935512.28 3z" fill="#02a9f4"/><path id="Shape" d="m45.72 15h-3c.1846777.9893614.278402 1.9935512.28 3 .002655 1.6987414-.2674491 3.3868915-.8 5h3c.5325509-1.6131085.802655-3.3012586.8-5-.001598-1.0064488-.0953223-2.0106386-.28-3z" fill="#0377bc"/><path id="Shape" d="m45.72 15h-3.72c-1.1032019-.0032948-1.9967052-.8967981-2-2v-1.56c-.0020027-.8615814-.5531596-1.62595953-1.37-1.9-.9740236-.32276154-1.6311671-1.23389301-1.63-2.26l-.0000016-3.67c4.5411144 2.20798953 7.7734645 6.4300614 8.7200016 11.39z" fill="#60a917"/><path id="Shape" d="m37 3.61v1.906c2.9765288 2.37815896 5.005184 5.7417545 5.72 9.484h3c-.9465371-4.9599386-4.1788872-9.18201047-8.72-11.39z" fill="#549414"/><path id="Shape" d="m28 2.13v3.57c0 1.14043091-.4530344 2.23415273-1.2594408 3.04055916-.8064065.80640643-1.9001283 1.25944084-3.0405592 1.25944084-.9459137-.00602028-1.7870542.6005715-2.08 1.5-.3012766.8976663-1.1431268 1.501865-2.09 1.5l-4.73.0000043c1.9324667-5.86785238 7.0704434-10.09889836 13.2-10.8700043z" fill="#60a917"/><path id="Shape" d="m54.84 24.077c-.3986967-1.2330665-1.5440938-2.070739-2.84-2.077h-5.475c1.752046-7.2270952-1.396576-14.75415977-7.7726454-18.5812094-6.3760695-3.82704964-14.4995491-3.06573513-20.0535116 1.87937067-5.5539625 4.94510583-7.2492011 12.92612623-4.184843 19.70183873h-1.514c-1.2667854.0052514-2.3937454.8056491-2.816 2h-3.235c-.25898524-1.8156072-1.87836165-3.1214948-3.70761805-2.9898747-1.82925641.1316201-3.24499487 1.6558927-3.24138195 3.4898747v7c-.00361292 1.833982 1.41212554 3.3582546 3.24138195 3.4898747 1.8292564.1316201 3.44863281-1.1742675 3.70761805-2.9898747h3.235c.4222546 1.1943509 1.5492146 1.9947486 2.816 2h4c0 1.6568542 1.3431458 3 3 3h2v1c.0036493 1.1358823.6501887 2.1717398 1.669 2.674l-7.96 12.736c-.5680523.9094196-.6077847 2.0528102-.1042304 2.9994677s1.4738934 1.552762 2.5455 1.59c1.0716066.0372379 2.0816781-.5000481 2.6497304-1.4094677l6.2-9.912v8.322c.0092882 1.6529917 1.3470083 2.9907118 3 3 1.6568542 0 3-1.3431458 3-3v-8.322l6.2 9.911c.5608033.9243774 1.5756216 1.4754845 2.6563104 1.4425357 1.0806888-.0329489 2.0600483-.6448561 2.563496-1.6016812s.4530923-2.110532-.1318064-3.0198545l-7.96-12.736c1.0199778-.5014166 1.6677866-1.5374457 1.672-2.674v-1h14c1.2959062-.006261 2.4413033-.8439335 2.84-2.077 2.911-.479 5.16-3.397 5.16-6.923s-2.249-6.444-5.16-6.923zm-10.398-10.077h-2.442c-.5522847 0-1-.4477153-1-1v-1.56c-.0044893-1.2922833-.8317756-2.43809695-2.057-2.849-.5644904-.18746671-.9448056-.71619759-.943-1.311l-.0000064-1.946c3.1464915 1.99115483 5.4420366 5.079201 6.4420064 8.666zm-17.4419819-10.7-.0000181 2.4c.0021656.64977656-.1900733 1.28534891-.552 1.825-.6112109.9208126-1.6427967 1.47452042-2.748 1.475-1.3771249-.00800164-2.6015725.87486187-3.029 2.184-.1652033.4891239-.6247334.8177625-1.141.816l-3.269.0000071c1.9578485-4.46927784 5.9607478-7.71215184 10.7390181-8.7000071zm-12.0000181 14.7c.0039064-1.3524569.1916246-2.6981075.558-4h3.972c1.3809733.0019739 2.6074259-.8821847 3.042-2.193.1602083-.4858904.6164059-.8122659 1.128-.807 2.9271092 0 5.3-2.37289083 5.3-5.3v-2.649c.332-.022.662-.051 1-.051 2.0657688.00006159 4.1089769.42947583 6 1.261v3.019c-.0037825 1.45465312.9265042 2.7474573 2.307 3.206.4107772.1377172.6890326.52077.693.954v1.56c0 1.6568542 1.3431458 3 3 3h2.851c.2927352 2.0057723.1563976 4.0508365-.4 6h-9.336l.455-.914c.2838858-.5574703.4312659-1.1744102.43-1.8v-2.286c0-2.209139-1.790861-4-4-4h-5c-2.209139 0-4 1.790861-4 4s1.790861 4 4 4v1h-7c-1.6568542 0-3 1.3431458-3 3h-.262c-1.1403385-2.1571342-1.7369358-4.5600003-1.738-7zm12 1c-1.1045695 0-2-.8954305-2-2s.8954305-2 2-2h5c1.1045695 0 2 .8954305 2 2v2.29c.0000892.3111343-.0735926.6178565-.215.895l-.904 1.815h-3.881v-1c0-1.1045695-.8954305-2-2-2zm-22 15.5c-.00000001.8284271-.67157288 1.5-1.5 1.5s-1.49999999-.6715729-1.5-1.5v-7c.00000001-.8284271.67157288-1.5 1.5-1.5s1.49999999.6715729 1.5 1.5zm2-5.5h3v4h-3zm6 6c-.5522847 0-1-.4477153-1-1v-6c0-.5522847.4477153-1 1-1h4v8zm6.1 23.53c-.3009387.4565489-.9070492.5968604-1.378.319-.224904-.1405644-.3847573-.3647146-.444394-.6231399-.0596366-.2584252-.0141713-.5299567.126394-.7548601l8.421-13.471h2.375zm11.9-.53c0 .5522847-.4477153 1-1 1-.2693445.0003954-.526929-.110308-.712-.306-.1865985-.1823963-.2906276-.4330776-.288-.694v-11.517l1-1.6 1 1.6zm11.277.849c-.4712037.2776688-1.0773789.1369024-1.378-.32l-9.094-14.529h2.37l8.425 13.471c.1401174.2255097.1848066.4974827.1242174.7559715s-.2214829.4822736-.4472174.6220285zm-6.277-17.849c0 .5522847-.4477153 1-1 1h-10c-.5522847 0-1-.4477153-1-1v-1h12zm16-3h-32c-.5522847 0-1-.4477153-1-1v-12c0-.5522847.4477153-1 1-1h32c.5522847 0 1 .4477153 1 1v12c0 .5522847-.4477153 1-1 1zm3-2.178v-9.644c1.9203545.8097137 3.1222153 2.7415046 3 4.822.1222153 2.0804954-1.0796455 4.0122863-3 4.822z" fill="#000"/></g></g></svg>