<svg id="Layer_3" enable-background="new 0 0 64 64" height="512" viewBox="0 0 64 64" width="512" xmlns="http://www.w3.org/2000/svg"><g><path d="m58 47h-52c-2.209 0-4-1.791-4-4v-37c0-2.209 1.791-4 4-4h52c2.209 0 4 1.791 4 4v37c0 2.209-1.791 4-4 4z" fill="#c1c8d1"/><path d="m6 35v-28c0-.552.448-1 1-1h50c.552 0 1 .448 1 1v28" fill="#c7e2fc"/><path d="m36.704 14.5c0-2.97-.483-5.825-1.363-8.5h-28.341c-.552 0-1 .448-1 1v28h21.365c5.72-4.985 9.339-12.317 9.339-20.5z" fill="#ebf7fe"/><path d="m47 62h-30v-2c0-2.209 1.791-4 4-4h22c2.209 0 4 1.791 4 4z" fill="#a8b0bc"/><path d="m62 35v8c0 2.209-1.791 4-4 4h-52c-2.209 0-4-1.791-4-4v-8z" fill="#a8b0bc"/><circle cx="32" cy="41" fill="#243242" r="2"/><path d="m25.929 56.002c.681-1.177 1.071-2.544 1.071-4.002 0-1.933-.686-3.706-1.827-5.089h13.718c-1.099 1.37-1.891 3.197-1.891 5.089 0 1.458.39 2.824 1.071 4.001z" fill="#758190"/><path d="m17 24-2 2 3 3 2-2 2 1v2h4v-2l2-1 2 2 3-3-2-2 1-2h2v-4h-2l-1-2 2-2-3-3-2 2-2-1v-2h-4v2l-2 1-2-2-3 3 2 2-1 2h-2v4h2z" fill="#808080"/><circle cx="24" cy="20" fill="#ebf7fe" r="4"/><path d="m58 22h-9.354c-.71 2.021-2.463 3.586-4.591 3.924-2.569.408-4.89-.875-6.055-2.924h.001 1.999c1.657 0 3-1.343 3-3s-1.343-3-3-3h-1.999l-.001-.001c1.019-1.793 2.924-2.999 5.105-2.999 2.566 0 4.743 1.671 5.553 4h9.342" fill="#999"/><path d="m58 .999h-52.001c-2.757 0-5 2.243-5 5v37c0 2.757 2.243 5 5 5h18.713c.819 1.171 1.287 2.563 1.287 4 0 1.043-.246 2.065-.69 3h-4.309c-2.758 0-5 2.243-5 5v2c0 .553.447 1 1 1h29.999c.553 0 1-.447 1-1v-2c0-2.757-2.242-5-5-5h-4.31c-.444-.933-.689-1.956-.689-2.999 0-1.458.455-2.824 1.282-4h18.718c2.757 0 5-2.243 5-5v-37c0-2.758-2.243-5.001-5-5.001zm-52.001 2h52.001c1.653 0 3 1.346 3 3v28h-2.001v-26.999c0-1.103-.896-2-2-2h-49.999c-1.104 0-2 .896-2 2v27h-2.001v-28c0-1.655 1.347-3.001 3-3.001zm34.168 13.004c.836-.64 1.864-1.003 2.937-1.003 2.063 0 3.916 1.338 4.608 3.329.142.401.52.671.946.671h8.341v2h-8.354c-.424 0-.803.268-.943.668-.602 1.714-2.095 2.997-3.804 3.269-1.354.216-2.696-.14-3.736-.94 2.13-.085 3.838-1.845 3.838-3.997-.001-2.149-1.705-3.908-3.833-3.997zm16.832.997h-7.67c-1.132-2.419-3.551-4-6.225-4-2.457 0-4.746 1.343-5.976 3.505-.136.239-.166.523-.086.786.079.263.265.481.511.604.139.068.293.105.447.105h1.999c1.103 0 2 .897 2 2s-.897 2-2 2h-2c-.355 0-.685.189-.864.497s-.181.688-.005.997c1.252 2.204 3.519 3.506 5.975 3.506.365 0 .735-.029 1.105-.088 2.23-.354 4.131-1.829 5.104-3.912h7.684v11h-49.998v-27h49.999zm-11 42.999v1h-27.999v-1c0-1.654 1.346-3 3-3h21.999c1.654.001 3 1.346 3 3zm-9.467-4.999h-9.067c.34-.961.533-1.972.533-3 0-1.395-.333-2.764-.947-4h9.895c-.612 1.236-.946 2.606-.946 4 0 1.028.193 2.039.532 3zm21.468-9h-52.001c-1.653 0-3-1.346-3-3v-7h58.001v7c0 1.653-1.347 3-3 3z"/><path d="m32 38c-1.654 0-3 1.346-3 3s1.346 3 3 3c1.653 0 2.999-1.346 2.999-3 0-1.655-1.346-3-2.999-3zm0 3.999c-.552 0-1-.448-1-1s.448-1 1-1c.551 0 .999.448.999 1s-.448 1-.999 1z"/><path d="m14 22.999h1.382l.401.803-1.491 1.49c-.39.391-.39 1.024 0 1.415l3 3c.391.39 1.024.392 1.415 0l1.49-1.491.803.401v1.382c0 .553.447 1 1 1h3.999c.553 0 1-.447 1-1v-1.382l.803-.401 1.49 1.491c.392.392 1.025.39 1.415 0l3-3c.39-.391.39-1.024 0-1.415l-1.491-1.49.401-.803h1.382c.553 0 1-.447 1-1v-4c0-.553-.447-1-1-1h-1.382l-.401-.803 1.491-1.49c.39-.391.39-1.024 0-1.415l-3-3c-.39-.39-1.023-.391-1.415 0l-1.49 1.491-.803-.401v-1.381c0-.553-.447-1-1-1h-3.999c-.553 0-1 .447-1 1v1.382l-.803.401-1.49-1.491c-.391-.391-1.024-.39-1.415 0l-3 3c-.39.391-.39 1.024 0 1.415l1.491 1.49-.401.803h-1.382c-.553 0-1 .447-1 1v4c0 .552.447.999 1 .999zm1-3.999h1c.378 0 .725-.214.894-.553l1-2c.193-.385.117-.85-.187-1.154l-1.293-1.293 1.586-1.586 1.292 1.293c.305.304.771.383 1.154.187l2-1c.339-.17.554-.516.554-.894v-1h1.999v1c0 .378.215.725.554.894l2 1c.386.196.851.117 1.154-.187l1.292-1.293 1.586 1.586-1.293 1.292c-.304.305-.38.77-.187 1.154l1 2c.169.339.516.554.894.554h1v2h-1c-.378 0-.725.214-.894.553l-1 2c-.193.385-.117.85.187 1.154l1.293 1.292-1.586 1.586-1.292-1.293c-.304-.303-.769-.379-1.154-.187l-2 1c-.339.169-.554.516-.554.894v1h-1.999v-1c0-.378-.215-.725-.554-.894l-2-1c-.383-.192-.85-.116-1.154.187l-1.292 1.293-1.586-1.586 1.293-1.292c.304-.305.38-.77.187-1.154l-1-2c-.169-.339-.516-.553-.894-.553h-1z"/><path d="m24 24.999c2.757 0 4.999-2.243 4.999-5s-2.242-5-4.999-5c-2.758 0-5 2.243-5 5s2.242 5 5 5zm0-7.999c1.653 0 2.999 1.346 2.999 3s-1.346 3-2.999 3c-1.654 0-3-1.346-3-3 0-1.655 1.346-3 3-3z"/></g></svg>