<svg id="_x31__x2C_5" height="512" viewBox="0 0 24 24" width="512" xmlns="http://www.w3.org/2000/svg"><path d="m14.75 7.75-2.75 1.5-2.75-1.5v-3c0-.552.448-1 1-1h3.5c.552 0 1 .448 1 1z" fill="#90a4ae"/><path d="m9.25 7.75-8.5 13.5h4l7.25-11.6z" fill="#cfd8dc"/><path d="m14.75 7.75 8.5 13.5h-4l-7.25-11.6z" fill="#cfd8dc"/><path d="m1.25 21.25-.5 2h2l1.25-2z" fill="#90a4ae"/><path d="m22.75 21.25.5 2h-2l-1.25-2z" fill="#90a4ae"/><path d="m12 10c-.124 0-.247-.031-.359-.092l-2.75-1.5c-.241-.131-.391-.384-.391-.658v-3c0-.965.785-1.75 1.75-1.75h3.5c.965 0 1.75.785 1.75 1.75v3c0 .274-.15.527-.391.658l-2.75 1.5c-.112.061-.235.092-.359.092zm-2-2.695 2 1.091 2-1.091v-2.555c0-.138-.112-.25-.25-.25h-3.5c-.138 0-.25.112-.25.25zm4.75.445h.01z"/><path d="m4.75 22h-4c-.273 0-.524-.148-.656-.388-.132-.239-.124-.531.021-.762l8.5-13.5c.221-.35.685-.455 1.034-.235.351.221.456.684.236 1.034l-7.777 12.351h2.226l7.03-11.248c.219-.352.681-.458 1.033-.239.352.22.458.683.238 1.034l-7.25 11.6c-.136.22-.376.353-.635.353z"/><path d="m23.25 22h-4c-.259 0-.499-.133-.636-.353l-7.25-11.6c-.22-.351-.113-.814.238-1.034.353-.22.814-.113 1.033.239l7.03 11.248h2.226l-7.776-12.351c-.22-.35-.115-.813.236-1.034.349-.22.813-.115 1.034.236l8.5 13.5c.146.231.153.523.021.762s-.383.387-.656.387z"/><path d="m2.75 24h-2c-.23 0-.449-.106-.591-.289-.143-.182-.192-.419-.137-.644l.5-2c.083-.333.384-.567.728-.567h2.75c.272 0 .523.148.656.386.132.239.124.53-.021.761l-1.25 2c-.136.22-.376.353-.635.353zm-1.039-1.5h.623l.312-.5h-.81z"/><path d="m23.25 24h-2c-.259 0-.499-.133-.636-.353l-1.25-2c-.145-.231-.152-.522-.021-.761.134-.238.385-.386.657-.386h2.75c.344 0 .645.234.728.568l.5 2c.056.224.006.461-.137.644-.142.182-.361.288-.591.288zm-1.584-1.5h.623l-.125-.5h-.811z"/><path d="m23.25 17h-22.5c-.414 0-.75-.336-.75-.75s.336-.75.75-.75h22.5c.414 0 .75.336.75.75s-.336.75-.75.75z"/><path d="m12 4.5c-.414 0-.75-.336-.75-.75v-3c0-.414.336-.75.75-.75s.75.336.75.75v3c0 .414-.336.75-.75.75z"/><path d="m12 19c-.414 0-.75-.336-.75-.75v-3.5c0-.414.336-.75.75-.75s.75.336.75.75v3.5c0 .414-.336.75-.75.75z"/></svg>