<svg height="512" viewBox="0 0 60 60" width="512" xmlns="http://www.w3.org/2000/svg"><g id="008---Red-Square" fill="none"><g id="Icons" transform="translate(3 6)"><path id="Shape" d="m29.6 9.2c.8490309-.56667972 1.3708288-1.50964298 1.4-2.53 0-1.84-4-6.67-4-6.67s-4 4.83-4 6.67c.0229196 1.0245524.5507043 1.97157028 1.41 2.53z" fill="#ffdc00"/><rect id="Rectangle-path" fill="#02a9f4" height="4" rx="1" width="6" x="24" y="9"/><path id="Rectangle-path" d="m24 32h6v5h-6z" fill="#c81e1e"/><path id="Shape" d="m24 43v10h-5v-3c0-1.6568542-1.3431458-3-3-3s-3 1.3431458-3 3v3h-5v-9c0-.5522847.44771525-1 1-1z" fill="#f44335"/><path id="Shape" d="m19 50v3h-6v-3c0-1.6568542 1.3431458-3 3-3s3 1.3431458 3 3z" fill="#2c2f38"/><path id="Rectangle-path" d="m24 43h6v10h-6z" fill="#c81e1e"/><path id="Shape" d="m13 26.07c.6481663-.8161265 1.0006657-1.8277996 1-2.87 0-2.65-5-7.2-5-7.2s-5 4.55-5 7.2c-.00066569 1.0422004.35183367 2.0538735 1 2.87z" fill="#60a917"/><g fill="#ef314c"><path id="Rectangle-path" d="m5 26h8v6h-8z"/><path id="Shape" d="m15.62 43h-6.62c-.55228475 0-1 .4477153-1 1v9h-8l3.33-14h11.34z"/><path id="Shape" d="m14.67 39h-11.34l1.67-7h8c1.31 5.5.94 3.92 1.67 7z"/></g><path id="Shape" d="m50 23.13c.0006657 1.0422004-.3518337 2.0538735-1 2.87h-8c-.6481663-.8161265-1.0006657-1.8277996-1-2.87 0-2.16 3.42-5.77 5-7.2 0 0 5 4.55 5 7.2z" fill="#6a1b9a"/><path id="Shape" d="m47 23.13c.0006657 1.0422004-.3518337 2.0538735-1 2.87h-5c-.6481663-.8161265-1.0006657-1.8277996-1-2.87 0-1.69 2-4.15 3.5-5.71 1.5 1.58 3.5 4.02 3.5 5.71z" fill="#9d27b0"/><path id="Rectangle-path" d="m41 26h8v6h-8z" fill="#bb193b"/><path id="Rectangle-path" d="m41 26h5v6h-5z" fill="#ef314c"/><path id="Shape" d="m46 44v9h-5v-3c0-1.6568542-1.3431458-3-3-3s-3 1.3431458-3 3v3h-5v-10h15c.5522847 0 1 .4477153 1 1z" fill="#f44335"/><path id="Shape" d="m46 44v9h-3v-9c0-.5522847-.4477153-1-1-1h3c.5522847 0 1 .4477153 1 1z" fill="#c81e1e"/><path id="Shape" d="m41 50v3h-6v-3c0-1.6568542 1.3431458-3 3-3s3 1.3431458 3 3z" fill="#2c2f38"/><path id="Shape" d="m54 53h-8v-9c0-.5522847-.4477153-1-1-1h-6.62l.95-4h11.34z" fill="#bb193b"/><path id="Shape" d="m46 53v-9c0-.5522847-.4477153-1-1-1h-6.62l.95-4h8.34l3.33 14z" fill="#ef314c"/><path id="Shape" d="m50.67 39h-11.34l1.67-7h8z" fill="#bb193b"/><path id="Shape" d="m47.67 39h-8.34l1.67-7h5z" fill="#ef314c"/><path id="Shape" d="m36 38v5h-18v-5c0-.5522847.4477153-1 1-1h16c.5522847 0 1 .4477153 1 1z" fill="#02a9f4"/><path id="Shape" d="m31 29.67c-.0167902.9092751-.4384649 1.7636248-1.15 2.33h-5.7c-.717237-.5617599-1.1403413-1.4190061-1.15-2.33 0-1.84 4-6.67 4-6.67s4 4.83 4 6.67z" fill="#02a9f4"/><path id="Shape" d="m39.91 36.56c-.73 3.07-.38 1.61-1.53 6.44h-2.38v-5c0-.5522847-.4477153-1-1-1h-5v-5h-.15c.7115351-.5663752 1.1332098-1.4207249 1.15-2.33 0-1.84-4-6.67-4-6.67s-4 4.83-4 6.67c.0096587.9109939.432763 1.7682401 1.15 2.33h-.15v5h-5c-.5522847 0-1 .4477153-1 1v5h-2.38l-1.53-6.44 10.5-23.65h4.82z" fill="#ef314c"/><path id="Shape" d="m39.91 36.56c-.73 3.07-.38 1.61-1.53 6.44h-2.38v-2.61c.42-1.78.22-.91.91-3.83l-10.5-23.65h3z" fill="#bb193b"/></g><g id="Layer_10" fill="#000"><path id="Shape" d="m19.59 36.91c.5026133.2253043 1.0927874.0017535 1.32-.5l7.29-16.41h3.6l7.29 16.41c.1316118.3479382.445482.5940634.8147671.6389097s.7329425-.1189993.9440084-.4253225c.2110659-.3063231.2346512-.7044886.0612245-1.0335872l-7.29-16.42c.2464405-.340392.3793985-.7497628.38-1.17 0-2.12 0-2.19-.11-2.64.702319-.7204548 1.0998811-1.6839162 1.11-2.69 0-1.9-2.82-5.57-4-7v-1.67h1c.5522847 0 1-.44771525 1-1s-.4477153-1-1-1h-1v-1c0-.55228475-.4477153-1-1-1s-1 .44771525-1 1v1h-1c-.5522847 0-1 .44771525-1 1s.4477153 1 1 1h1v1.64c-1.18 1.46-4 5.13-4 7 .0191448 1.0042264.4153903 1.9644971 1.11 2.69-.11.49-.11.56-.11 2.67.0006015.4202372.1335595.829608.38 1.17l-7.29 16.42c-.2253043.5026133-.0017535 1.0927874.5 1.32zm12.41-20.91v2h-4v-2zm-2-8.4c1.56 2 3 4.29 3 5.07-.0253798.5030719-.2396519.9780416-.6 1.33-1.4652275-.0918871-2.9347725-.0918871-4.4 0-.1328951-.0152882-.2671049-.0152882-.4 0-.36965-.3618861-.5847027-.852923-.6-1.37 0-.74 1.44-3.02 3-5.03z"/><path id="Shape" d="m59 58h-1.21l-4.79-20.12v-5.52c.6451231-.928019.9937863-2.0297944 1-3.16 0-2.68-3.67-6.38-5-7.64v-1.56h1c.5522847 0 1-.4477153 1-1s-.4477153-1-1-1h-1v-1c0-.5522847-.4477153-1-1-1s-1 .4477153-1 1v1h-1c-.5522847 0-1 .4477153-1 1s.4477153 1 1 1h1v1.56c-1.33 1.26-5 5-5 7.64.0062137 1.1302056.3548769 2.231981 1 3.16v5.52l-2.41 10.12h-.59v-4c0-1.1045695-.8954305-2-2-2h-4v-3.76c.6343976-.7067856.9898561-1.6203141 1-2.57 0-2-3.24-6.11-4.23-7.31-.1899799-.2292703-.4722463-.3619561-.77-.3619561s-.5800201.1326858-.77.3619561c-1 1.2-4.23 5.27-4.23 7.31.0157926.9515789.3703545 1.8663486 1 2.58v3.75h-4c-1.1045695 0-2 .8954305-2 2v4h-.59l-2.41-10.12v-5.52c.6451231-.928019.9937863-2.0297944 1-3.16 0-2.68-3.67-6.38-5-7.64v-1.56h1c.5522847 0 1-.4477153 1-1s-.4477153-1-1-1h-1v-1c0-.5522847-.4477153-1-1-1s-1 .4477153-1 1v1h-1c-.55228475 0-1 .4477153-1 1s.44771525 1 1 1h1v1.56c-1.33 1.26-5 5-5 7.64.00621375 1.1302056.35487685 2.231981 1 3.16v5.52l-4.79 20.12h-1.21c-.55228475 0-1 .4477153-1 1s.44771525 1 1 1h58c.5522847 0 1-.4477153 1-1s-.4477153-1-1-1zm-11-17c-.5522847 0-1 .4477153-1 1v2h-3.4l1.19-5h6.42l1.19 5h-3.4v-2c0-.5522847-.4477153-1-1-1zm3-4h-2v-1c0-.5522847-.4477153-1-1-1s-1 .4477153-1 1v1h-2v-4h6zm-3-13.62c1.84 1.81 4 4.47 4 5.82.0000545.6329537-.1691202 1.2544118-.49 1.8h-7c-.3278864-.5436061-.5040024-1.165192-.51-1.8 0-1.35 2.16-4.01 4-5.82zm-18 7.22c1.56 2 3 4.29 3 5.07-.0146465.4975756-.2143224.9718059-.56 1.33h-4.88c-.3456776-.3581941-.5453535-.8324244-.56-1.33 0-.78 1.44-3.06 3-5.07zm-2 8.4h4v3h-4zm-6 5h16v4h-16zm-10-3c-.5522847 0-1 .4477153-1 1v2h-3.4l1.19-5h6.42l1.19 5h-3.4v-2c0-.5522847-.4477153-1-1-1zm3-4h-2v-1c0-.5522847-.4477153-1-1-1s-1 .4477153-1 1v1h-2v-4h6zm-3-13.62c1.84 1.81 4 4.47 4 5.82.0000545.6329537-.1691202 1.2544118-.49 1.8h-7c-.32788641-.5436061-.50400242-1.165192-.51-1.8 0-1.35 2.16-4.01 4-5.82zm-4.88 22.62h9.76l.47 2h-5.35c-1.1045695 0-2 .8954305-2 2v8h-5.73zm4.88 4h14v8h-3v-2c0-2.209139-1.790861-4-4-4s-4 1.790861-4 4v2h-3zm5 8v-2c0-1.1045695.8954305-2 2-2s2 .8954305 2 2v2zm11 0v-8h4v8zm11 0v-2c0-1.1045695.8954305-2 2-2s2 .8954305 2 2v2zm6 0v-2c0-2.209139-1.790861-4-4-4s-4 1.790861-4 4v2h-3v-8h14v8zm5 0v-8c0-1.1045695-.8954305-2-2-2h-5.35l.47-2h9.76l2.85 12z"/></g></g></svg>