<svg id="Layer_1" enable-background="new 0 0 512 512" height="512" viewBox="0 0 512 512" width="512" xmlns="http://www.w3.org/2000/svg"><g><circle cx="188.923" cy="96.866" fill="#c8effe" r="50"/><path d="m188.923 46.866c-5.227 0-10.264.805-15 2.292 20.285 6.372 35 25.32 35 47.708s-14.715 41.336-35 47.708c4.736 1.487 9.773 2.292 15 2.292 27.614 0 50-22.386 50-50s-22.386-50-50-50z" fill="#99e6fc"/><circle cx="323.077" cy="96.866" fill="#c8effe" r="50"/><path d="m323.077 46.866c-5.227 0-10.264.805-15 2.292 20.285 6.372 35 25.32 35 47.708s-14.715 41.336-35 47.708c4.736 1.487 9.773 2.292 15 2.292 27.614 0 50-22.386 50-50s-22.385-50-50-50z" fill="#99e6fc"/><g fill="#537983"><circle cx="194.884" cy="111.442" r="14.576"/><circle cx="317.116" cy="111.442" r="14.576"/></g><path d="m241 206.405-229.246-70.142c-2.115-.647-4.254.935-4.254 3.147v283.773c0 1.412.901 2.667 2.238 3.118l231.262 78.104z" fill="#fec165"/><path d="m271 206.405 229.246-70.142c2.115-.647 4.254.935 4.254 3.147v283.773c0 1.412-.901 2.667-2.238 3.118l-231.262 78.104z" fill="#fec165"/><g><path d="m500.246 136.263-25.746 7.877v291.537l27.762-9.376c1.338-.452 2.238-1.707 2.238-3.118v-283.773c0-2.212-2.139-3.794-4.254-3.147z" fill="#fdb441"/></g><path d="m157.778 254.453-95.744-29.295c-.912-.279-1.833.403-1.833 1.356v60.436c0 .608.388 1.149.965 1.344l93.974 31.737c2.793.943 5.687-1.134 5.687-4.082v-57.377c-.001-1.894-1.238-3.565-3.049-4.119z" fill="#f3f0f3"/><path d="m280 504.405h-48c-3.314 0-6-2.686-6-6v-286c0-3.314 2.686-6 6-6h48c3.314 0 6 2.686 6 6v286c0 3.314-2.686 6-6 6z" fill="#01d0fb"/><path d="m280 206.405h-30c3.314 0 6 2.686 6 6v286c0 3.314-2.686 6-6 6h30c3.314 0 6-2.686 6-6v-286c0-3.314-2.686-6-6-6z" fill="#01c0fa"/><path d="m439.973 352.198-7.925-8.171c-2.575-2.655-6.91-2.394-9.148.55l-14.05 18.48c-1.265 1.663-3.919.769-3.919-1.321v-200.293l38.152-12.11v201.605c0 1.626-1.978 2.428-3.11 1.26z" fill="#fe646f"/><g><path d="m58.765 295.399 93.974 31.737c3.576 1.211 7.577.624 10.664-1.594 3.083-2.213 4.923-5.799 4.923-9.594v-57.377c0-5.226-3.357-9.764-8.355-11.291h.001l-95.742-29.294c-5.512-1.848-11.681 2.717-11.53 8.527v60.436c.001 3.825 2.435 7.22 6.065 8.45zm8.936-60.664 85.625 26.199v50.568l-85.625-28.918z"/><path d="m504.5 361.251c4.142 0 7.5-3.357 7.5-7.5v-214.341c0-3.405-1.634-6.647-4.372-8.674-2.738-2.026-6.316-2.639-9.577-1.646l-49.486 15.142c-.321-.345-.666-.669-1.053-.952-1.931-1.412-4.419-1.82-6.698-1.096l-38.152 12.11c-2.583.819-4.458 2.955-5.031 5.522l-127.754 39.089h-27.756l-163.23-49.943c-9.598-2.578-13.777 11.116-4.389 14.344l144.884 44.33c-.564 1.486-.886 3.089-.886 4.77v276.484l-203.5-68.728v-275.064l26.062 7.975c3.963 1.211 8.154-1.018 9.366-4.978 1.212-3.961-1.017-8.154-4.978-9.366l-31.504-9.64c-3.257-.994-6.836-.38-9.575 1.646-2.737 2.027-4.371 5.27-4.371 8.675v283.773c0 4.635 2.95 8.744 7.338 10.224l213.129 71.979c2.37 3.9 6.646 6.519 11.533 6.519h48c4.887 0 9.163-2.619 11.533-6.519l213.125-71.978c4.392-1.48 7.342-5.59 7.342-10.225v-34.561c-.344-9.931-14.66-9.923-15 0v31.54l-203.5 68.728v-276.485c0-1.681-.323-3.284-.887-4.77l104.818-32.071v186.173c0 4.159 2.648 7.847 6.59 9.175 3.879 1.322 8.278.017 10.8-3.314l13.023-17.131 6.745 6.953c2.652 2.735 6.647 3.578 10.18 2.147 3.532-1.432 5.814-4.818 5.814-8.629v-191.637l46.417-14.203v208.652c0 4.143 3.358 7.501 7.5 7.501zm-226 135.654h-45v-283h7.476c.017.002.034.002.051 0h29.947c.017.002.034.002.051 0h7.476v283zm157.083-159.691c-2.504-1.79-5.564-2.694-8.686-2.498-3.944.237-7.577 2.177-9.968 5.322l-4.498 5.917v-179.024l23.152-7.35z"/><path d="m188.923 154.366c29.162 0 53.306-21.827 56.995-50h20.164c3.689 28.173 27.833 50 56.995 50 39.193.534 67.871-40.36 54.105-77.005-1.405-3.896-5.703-5.914-9.599-4.512-3.896 1.405-5.917 5.703-4.511 9.6 10.195 26.926-11.112 57.445-39.995 56.916-23.434.001-42.5-19.065-42.5-42.5-.281-32.421 36.058-53.283 63.885-36.737 3.579 2.087 8.169.88 10.258-2.697 2.088-3.578.88-8.17-2.697-10.258-34.969-20.916-81.217 2.309-85.941 42.192h-20.164c-11.348-70.425-112.239-64.237-114.495 7.501 0 31.706 25.794 57.5 57.5 57.5zm0-100c23.435 0 42.5 19.065 42.5 42.5-2.335 56.382-82.674 56.366-85 0 0-23.435 19.065-42.5 42.5-42.5z"/><path d="m154.931 26.988c19.86-16.517 48.745-15.321 68.109.11 3.13 2.687 7.87 2.344 10.576-.812 2.696-3.144 2.333-7.879-.811-10.575-25.024-20.565-63.048-21.115-87.891.11-7.161 6.889 2.401 17.537 10.017 11.167z"/><path d="m289.062 27.008c20.063-16.489 48.656-15.388 68.133.09 3.13 2.687 7.87 2.344 10.576-.812 2.696-3.144 2.333-7.879-.811-10.575-25.022-20.564-63.05-21.115-87.89.11-3.074 2.758-3.329 7.471-.584 10.557 2.744 3.086 7.479 3.363 10.576.63z"/><path d="m194.884 133.518c12.173 0 22.076-9.903 22.076-22.076-1.213-29.287-42.944-29.279-44.152 0 0 12.173 9.903 22.076 22.076 22.076zm0-29.152c3.902 0 7.076 3.175 7.076 7.076-.333 9.365-13.821 9.363-14.152 0 0-3.901 3.174-7.076 7.076-7.076z"/><path d="m295.04 111.442c0 12.173 9.903 22.076 22.076 22.076 29.287-1.213 29.279-42.944 0-44.152-12.173 0-22.076 9.903-22.076 22.076zm29.152 0c0 3.901-3.174 7.076-7.076 7.076-9.365-.333-9.363-13.821 0-14.152 3.902 0 7.076 3.175 7.076 7.076z"/></g></g></svg>