<?xml version="1.0" encoding="iso-8859-1"?>
<!-- Generator: Adobe Illustrator 19.0.0, SVG Export Plug-In . SVG Version: 6.00 Build 0)  -->
<svg version="1.1" id="Capa_1" xmlns="http://www.w3.org/2000/svg" xmlns:xlink="http://www.w3.org/1999/xlink" x="0px" y="0px"
	 viewBox="0 0 512 512" style="enable-background:new 0 0 512 512;" xml:space="preserve">
<circle style="fill:#878791;" cx="256" cy="38" r="28"/>
<rect x="10" y="142" style="fill:#F0F0FA;" width="492" height="360"/>
<path style="fill:#6E87F5;" d="M401.296,425.285l2.802-0.914c6.485-2.115,13.608-0.366,18.375,4.513l3.906,3.997
	c7.282,7.453,19.363,7.145,26.256-0.669l6.132-6.951c2.888-3.274,4.481-7.489,4.481-11.855v-9.742
	c0-5.368-2.407-10.454-6.558-13.858l-18.163-14.892c-3.204-2.627-7.219-4.063-11.362-4.063h-9.708c-2.226,0-4.433,0.415-6.508,1.223
	l-21.719,8.465c-6.881,2.682-11.413,9.311-11.413,16.697v11.013c0,7.592,4.784,14.361,11.942,16.893l0,0
	C393.485,426.46,397.54,426.51,401.296,425.285z"/>
<path style="fill:#F5B955;" d="M343.236,340.912L343.236,340.912c-10.978,0-21.169-5.7-26.915-15.054l-13.097-21.32h-19.342
	c-5.05,0-10.03-1.176-14.547-3.434l0,0c-1.523-0.762-2.485-2.318-2.485-4.021l0,0c0-2.483-2.013-4.496-4.496-4.496h-13.717
	c-9.139,0-17.741,4.318-23.201,11.646l-5.337,7.162c-3.722,4.995-5.732,11.058-5.732,17.287l0,0c0,7.819,3.165,15.305,8.773,20.753
	l0.994,0.965c5.4,5.246,12.632,8.18,20.16,8.18h18.919l8.314,29.619l-2.542,2.542c-2.864,2.864-4.473,6.749-4.473,10.799l0,0
	c0,2.829,0.786,5.602,2.269,8.01l11.988,19.459c2.281,3.702,6.318,5.957,10.666,5.957l0,0c4.369,0,8.422-2.276,10.696-6.006
	l17.218-28.237c3.297-5.407,4.6-11.797,3.683-18.064l0,0c-1.084-7.408,0.939-14.934,5.591-20.8L343.236,340.912z"/>
<path style="fill:#A5DC69;" d="M111.056,317.61c0,0-30.764-7.032-30.178-8.204S62.42,271.025,62.42,271.025l12.118-25.289
	c0.895-1.868,1.36-3.912,1.36-5.984v-6.436c0-4.093-3.318-7.411-7.411-7.411H57.384c-7.827,0-11.598-9.595-5.865-14.924
	l16.231-15.088c5.989-5.568,13.864-8.662,22.041-8.662h81.475c17.879,0,32.373,14.494,32.373,32.373l0,0
	c0,11.336-6.611,21.632-16.92,26.348l-14.137,6.468l-39.846,30.91l-27.541,6.446L111.056,317.61z"/>
<path style="fill:#FF6E37;" d="M100.686,327.86l15.783-8.498h33.993l20.639,29.744l14.052,7.807
	c7.044,3.913,9.066,13.114,4.311,19.62l0,0c-1.677,2.295-2.581,5.064-2.581,7.906v6.507c0,7.4-5.999,13.4-13.4,13.4h-6.632
	l-23.067,41.885v13.962l0,0c1.518,3.994-3.299,7.372-6.537,4.585l-11.673-10.048l-7.284-63.737l-19.798-16.97
	c-6.025-5.164-8.361-13.441-5.925-20.993L100.686,327.86z"/>
<path style="fill:#FF5A5A;" d="M307.031,303.551l22.041-13.874c2.244-1.413,3.606-3.879,3.606-6.531l0,0
	c0-4.262,3.455-7.717,7.717-7.717h0.849c2.522,0,4.884,1.232,6.328,3.3l19.147,27.427l2.332-19.79l19.119-10.936l15.779,17.622
	c4.257,4.754,11.873,4.138,15.311-1.237l13.987-21.869c1.573-2.46,1.947-5.499,1.018-8.267l-1.877-5.59
	c-2.48-7.387,3.016-15.03,10.808-15.03l0,0V221.79l-8.818-6.818c-1.845-1.427-2.231-4.058-0.872-5.954l0,0
	c0.814-1.136,2.126-1.81,3.524-1.81h26.218v-16.665l-55.026-10.416h-63.886l-26.852,10.36c-16.157,6.233-33.325,9.43-50.642,9.43
	l0,0c-9.229,0-17.514,5.658-20.872,14.254l-5.622,14.389l-11.135,12.436c-1.223,1.366-2.969,2.146-4.802,2.146l0,0
	c-3.56,0-6.446,2.886-6.446,6.446v3.253c0,3.56,2.886,6.446,6.446,6.446h48.113L307.031,303.551z"/>
<path d="M343.24,512c-2.631,0-5.21-1.07-7.08-2.93c-1.86-1.86-2.92-4.44-2.92-7.07s1.06-5.21,2.92-7.07
	c1.87-1.86,4.439-2.93,7.08-2.93c2.63,0,5.21,1.07,7.069,2.93c1.86,1.86,2.931,4.44,2.931,7.07s-1.07,5.21-2.931,7.07
	C348.44,510.93,345.87,512,343.24,512z"/>
<path d="M439.203,448.277c-7.487,0-14.732-3.041-19.977-8.407l-3.906-3.998c-2.121-2.172-5.233-2.935-8.122-1.994l-2.801,0.914
	c-5.819,1.899-12.204,1.819-17.975-0.223c-11.128-3.938-18.604-14.516-18.604-26.32v-11.013c0-11.593,6.979-21.804,17.781-26.014
	l21.718-8.465c3.249-1.265,6.659-1.906,10.14-1.906h9.708c6.438,0,12.725,2.248,17.702,6.329l18.163,14.893
	c6.493,5.324,10.218,13.194,10.218,21.59v9.743c0,6.806-2.479,13.365-6.981,18.469l-6.133,6.952
	c-5.118,5.803-12.49,9.244-20.226,9.441C439.674,448.274,439.438,448.277,439.203,448.277z M409.731,413.466
	c7.374,0,14.53,2.938,19.895,8.428l3.906,3.998c1.558,1.593,3.658,2.437,5.867,2.382c2.227-0.057,4.264-1.008,5.737-2.678
	l6.132-6.951c1.277-1.448,1.98-3.309,1.98-5.239v-9.743c0-2.381-1.057-4.614-2.899-6.125l-18.162-14.893
	c-1.412-1.158-3.195-1.795-5.021-1.795h-9.708c-0.987,0-1.956,0.182-2.879,0.542l-21.715,8.464
	c-3.064,1.194-5.045,4.091-5.045,7.379v11.013c0,3.349,2.121,6.349,5.278,7.467c1.638,0.58,3.448,0.603,5.097,0.063
	c0.001,0,0.001,0,0.001,0l2.802-0.914C403.876,413.924,406.822,413.466,409.731,413.466z"/>
<path d="M130,197.23c-2.63,0-5.21-1.07-7.07-2.93s-2.93-4.44-2.93-7.07s1.069-5.21,2.93-7.07c1.86-1.86,4.44-2.93,7.07-2.93
	c2.63,0,5.21,1.07,7.069,2.93c1.86,1.86,2.931,4.44,2.931,7.07s-1.07,5.21-2.931,7.07C135.21,196.16,132.63,197.23,130,197.23z"/>
<path d="M135.016,293.067c1.4-0.328,2.714-0.954,3.85-1.835l38.932-30.2l13.084-5.986c13.825-6.326,22.759-20.238,22.759-35.442
	c0-23.365-19.009-42.373-42.373-42.373c-5.522,0-10,4.477-10,10s4.478,10,10,10c12.337,0,22.373,10.037,22.373,22.374
	c0,7.402-4.35,14.175-11.081,17.255l-14.137,6.468c-0.699,0.32-1.36,0.72-1.968,1.192l-38.122,29.572l-25.416,5.948
	c-5.292,1.239-8.626,6.478-7.506,11.797l2.604,12.372c-3.696-0.926-6.978-1.786-9.3-2.451c-0.425-0.954-0.899-1.971-1.41-3.067
	c-1.541-3.306-3.721-7.8-6.479-13.358c-2.685-5.41-5.413-10.813-7.254-14.441l9.982-20.832c1.532-3.196,2.342-6.76,2.342-10.307
	v-6.436c0-9.601-7.811-17.411-17.411-17.411H60.91l13.648-12.688c4.153-3.861,9.563-5.987,15.232-5.987c5.522,0,10-4.477,10-10
	s-4.478-10-10-10c-10.739,0-20.984,4.027-28.85,11.338l-16.23,15.088c-5.644,5.246-7.469,13.27-4.65,20.442
	c2.818,7.171,9.618,11.806,17.324,11.806h8.513v3.847c0,0.572-0.13,1.147-0.378,1.663l-12.118,25.289
	c-1.349,2.815-1.306,6.099,0.117,8.877c7.53,14.713,15.873,31.566,17.536,35.748c0.157,0.834,0.418,1.651,0.784,2.427
	c2.25,4.762,5.554,5.904,19.972,9.516c-0.251,0.486-0.472,0.991-0.642,1.518l-8.117,25.167c-3.685,11.42-0.179,23.846,8.933,31.656
	l16.816,14.414l6.839,59.836c0.286,2.5,1.504,4.801,3.411,6.443l11.674,10.049c2.638,2.271,5.918,3.421,9.211,3.421
	c2.826,0,5.661-0.848,8.106-2.563c4.642-3.255,6.823-8.894,5.743-14.309V448.8l18.977-34.457h0.723
	c12.902,0,23.399-10.497,23.399-23.4v-6.507c0-0.726,0.227-1.419,0.654-2.005c3.958-5.415,5.402-12.277,3.963-18.828
	s-5.628-12.176-11.491-15.433l-12.019-6.678l-19.313-27.833c-1.868-2.693-4.938-4.299-8.216-4.299h-30.924l-2.543-12.077
	L135.016,293.067z M162.885,354.806c0.872,1.257,2.021,2.297,3.359,3.041l14.052,7.808c1.167,0.648,1.547,1.683,1.67,2.243
	c0.123,0.559,0.212,1.658-0.576,2.736c-2.948,4.035-4.507,8.809-4.507,13.805v6.507c0,1.875-1.525,3.4-3.399,3.4h-6.632
	c-3.645,0-7.001,1.983-8.76,5.176l-23.067,41.885c-0.289,0.526-0.53,1.076-0.72,1.642l-6.08-53.192
	c-0.287-2.508-1.511-4.814-3.428-6.457l-19.798-16.969c-2.973-2.549-4.117-6.604-2.914-10.331l6.883-21.34l10.022-5.396h26.239
	L162.885,354.806z"/>
<path d="M465.108,180.715l-55.025-10.416c-0.612-0.116-1.235-0.174-1.859-0.174h-63.886c-1.23,0-2.451,0.227-3.6,0.67
	l-26.853,10.359c-15.065,5.813-30.893,8.76-47.042,8.76c-13.444,0-25.293,8.091-30.188,20.615l-4.964,12.705l-8.944,9.989
	c-8.29,0.836-14.782,7.855-14.782,16.362v3.253c0,9.068,7.377,16.446,16.445,16.446h43.229l19.686,25.253h-3.444
	c-2.564,0-5.132-0.447-7.551-1.305c-1.69-6.131-7.316-10.646-13.978-10.646h-13.718c-12.237,0-23.909,5.858-31.22,15.671
	l-5.337,7.163c-4.974,6.675-7.713,14.937-7.713,23.262c0,10.46,4.303,20.638,11.806,27.928l0.993,0.963
	c7.307,7.099,16.94,11.008,27.128,11.008h11.34l4.716,16.801c-3.78,4.531-5.838,10.187-5.838,16.159
	c0,4.683,1.299,9.266,3.756,13.256l11.987,19.458c4.07,6.608,11.42,10.712,19.181,10.712c7.803,0,15.173-4.138,19.234-10.799
	l17.218-28.238c4.502-7.383,6.291-16.162,5.039-24.717c-0.682-4.66,0.605-9.449,3.532-13.139l16.613-20.947
	c2.384-3.006,2.838-7.11,1.168-10.565c-1.669-3.454-5.167-5.649-9.004-5.649c-7.448,0-14.496-3.942-18.395-10.289l-7.294-11.875
	L334.4,298.14c3.723-2.343,6.368-5.894,7.563-9.979l16.558,23.717c1.898,2.72,4.982,4.276,8.199,4.276
	c0.809,0,1.627-0.099,2.436-0.302c4.027-1.011,7.01-4.405,7.496-8.528l1.741-14.783l7.724-4.418l10.384,11.597
	c4.132,4.614,10.032,6.975,16.218,6.476c6.174-0.499,11.629-3.778,14.968-8.997l13.985-21.868c3.22-5.034,3.977-11.171,2.074-16.84
	l-1.878-5.589c-0.151-0.452-0.087-0.877,0.191-1.264c0.278-0.387,0.661-0.583,1.138-0.583c5.522,0,10-4.477,10-10v-19.269
	c0-1.615-0.391-3.183-1.111-4.582h11.163c5.522,0,10-4.477,10-10v-16.665C473.248,185.735,469.83,181.609,465.108,180.715z
	 M325.663,346.976l-6.875,8.668c-6.34,7.994-9.129,18.368-7.651,28.462c0.578,3.95-0.248,8.002-2.326,11.41l-17.218,28.237
	c-0.455,0.747-1.282,1.211-2.158,1.211c-0.884,0-1.688-0.449-2.152-1.202l-11.987-19.458c-0.513-0.833-0.784-1.79-0.784-2.767
	c0-1.408,0.549-2.732,1.542-3.727l2.543-2.542c2.558-2.556,3.536-6.293,2.559-9.775l-8.314-29.619
	c-1.211-4.315-5.146-7.297-9.628-7.297h-18.919c-4.954,0-9.639-1.901-13.193-5.354l-0.993-0.964
	c-3.648-3.544-5.74-8.494-5.74-13.581c0-4.049,1.332-8.066,3.75-11.312l5.337-7.163c3.556-4.772,9.231-7.621,15.183-7.621h9.287
	c1.3,3.188,3.724,5.854,6.94,7.462c5.874,2.937,12.451,4.49,19.019,4.49h13.749l10.169,16.554
	C312.098,338.088,318.383,343.568,325.663,346.976z M437.03,197.206c-4.612,0-8.97,2.239-11.652,5.986
	c-4.513,6.299-3.247,14.947,2.885,19.689l4.935,3.815v6.847c-2.885,1.525-5.425,3.707-7.376,6.42
	c-4.011,5.577-5.099,12.794-2.912,19.308l1.823,5.427l-13.644,21.333l-15.467-17.274c-3.147-3.514-8.321-4.351-12.415-2.009
	l-19.119,10.937c-1.236,0.707-2.289,1.658-3.107,2.777l-5.209-7.461c-3.313-4.742-8.742-7.572-14.525-7.572h-0.85
	c-9.336,0-17.008,7.257-17.67,16.427l-13.368,8.414l-28.947-37.134c-1.895-2.431-4.805-3.852-7.887-3.852H234.99
	c0.591-0.497,1.15-1.037,1.671-1.62l11.136-12.436c0.798-0.891,1.43-1.918,1.865-3.032l5.622-14.389
	c1.874-4.795,6.411-7.894,11.559-7.894c18.62,0,36.87-3.398,54.241-10.101l25.115-9.689h61.086l37.406,7.081h-7.661V197.206z"/>
<path d="M502,132H382.009l-91.617-77.859C292.702,49.239,294,43.769,294,38c0-20.953-17.047-38-38-38s-38,17.047-38,38
	c0,5.769,1.298,11.239,3.609,16.142L129.992,132H10c-5.522,0-10,4.477-10,10v360c0,5.523,4.478,10,10,10h282c5.522,0,10-4.477,10-10
	s-4.478-10-10-10H20V152h472v340h-98c-5.522,0-10,4.477-10,10s4.478,10,10,10h108c5.522,0,10-4.477,10-10V142
	C512,136.478,507.523,132,502,132z M256,20c9.925,0,18,8.075,18,18s-8.075,18-18,18s-18-8.075-18-18S246.075,20,256,20z
	 M234.579,69.366C240.682,73.548,248.059,76,256,76c7.941,0,15.318-2.452,21.422-6.634L351.124,132H160.876L234.579,69.366z"/>
<g>
</g>
<g>
</g>
<g>
</g>
<g>
</g>
<g>
</g>
<g>
</g>
<g>
</g>
<g>
</g>
<g>
</g>
<g>
</g>
<g>
</g>
<g>
</g>
<g>
</g>
<g>
</g>
<g>
</g>
</svg>
