<svg height="511pt" viewBox="1 -72 511.999 511" width="511pt" xmlns="http://www.w3.org/2000/svg"><path d="m289.269531 271.953125h-15.917969c-7.9375 0-15.675781 2.453125-22.164062 7.023437-6.355469 4.480469-13.765625 7.234376-21.503906 7.996094l-59.683594 5.871094-57.34375-62.773438 81.5-81.863281h95.117188v123.746094zm0 0" fill="#e89776"/><path d="m137.921875 140.449219-65.875 27.507812c-1.453125.605469-2.695313 1.621094-3.582031 2.917969l-37.355469 54.65625c-1.761719 2.578125-1.289063 6.074219 1.097656 8.089844l5.1875 4.386718c6.316407 5.335938 15.53125 5.4375 21.957031.242188l49.375-39.914062 58.109376-24.65625zm0 0" fill="#e8916f"/><path d="m52.519531 293.632812-22.628906-22.609374c-1.5625-1.558594-1.5625-4.09375 0-5.65625l251.742187-251.519532c7.804688-7.796875 20.453126-7.796875 28.257813 0 7.816406 7.808594 7.816406 20.476563 0 28.285156l-251.71875 251.5c-1.5625 1.558594-4.09375 1.558594-5.652344 0zm0 0" fill="#50536e"/><path d="m52.519531 293.632812-22.628906-22.609374c-1.5625-1.558594-1.5625-4.09375 0-5.65625l18.382813-18.363282 28.285156 28.257813-18.386719 18.371093c-1.5625 1.558594-4.09375 1.558594-5.652344 0zm0 0" fill="#ffd659"/><path d="m7.527344 311.542969c4.539062-37.710938 22.890625-39.988281 22.890625-39.988281l21.5625 21.546874s-2.269531 18.339844-40.019531 22.871094c-2.550782.304688-4.738282-1.882812-4.433594-4.429687zm0 0" fill="#d8d5ed"/><path d="m249.710938 114.394531-54.28125-24.75c-3.230469-1.472656-6.933594-1.492187-10.175782-.058593l-83.183594 36.769531c-6.8125 3.011719-9.5 11.277343-5.753906 17.71875 8.515625 14.648437 25.886719 21.640625 42.175782 16.984375l30.488281-8.71875c4.878906-1.398438 10.132812.019531 13.648437 3.679687l42.761719 44.5c12.035156 12.519531 27.464844 21.246094 44.394531 25.109375l19.484375 4.441406v-111.367187h-19.730469c-6.84375 0-13.605468-1.472656-19.828124-4.308594zm0 0" fill="#ebad88"/><path d="m363.867188 283.542969h-65.195313c-5.191406 0-9.402344-4.207031-9.402344-9.402344v-161.195313c0-5.191406 4.210938-9.402343 9.402344-9.402343h65.195313c5.195312 0 9.402343 4.210937 9.402343 9.402343v161.195313c0 5.195313-4.207031 9.402344-9.402343 9.402344zm0 0" fill="#d8d5ed"/><path d="m363.867188 103.542969h-30c5.195312 0 9.402343 4.210937 9.402343 9.402343v161.195313c0 5.191406-4.207031 9.402344-9.402343 9.402344h30c5.195312 0 9.402343-4.207031 9.402343-9.402344v-161.195313c0-5.191406-4.207031-9.402343-9.402343-9.402343zm0 0" fill="#bebade"/><path d="m212.945312 285.902344c1.382813 11.882812-7.128906 22.636718-19.011718 24.015625l-18.484375 2.148437c-9.375 1.089844-17.863281-5.628906-18.953125-15.003906l-1.046875-9.019531c-1.089844-9.378907 5.625-17.867188 15.003906-18.957031l18.53125-2.152344c11.855469-1.378906 22.582031 7.113281 23.960937 18.96875zm0 0" fill="#e8a67d"/><path d="m195.367188 258.328125c1.382812 11.882813-7.128907 22.632813-19.011719 24.015625l-35.804688 4.160156c-9.375 1.089844-17.863281-5.625-18.953125-15.003906l-1.046875-9.019531c-1.089843-9.378907 5.625-17.863281 15.003907-18.957031l35.851562-4.167969c11.859375-1.375 22.585938 7.117187 23.960938 18.972656zm0 0" fill="#e8ab86"/><path d="m173.957031 228.960938c1.382813 11.878906-7.128906 22.632812-19.011719 24.015624l-35.804687 4.160157c-9.378906 1.089843-17.863281-5.628907-18.953125-15.003907l-1.050781-9.023437c-1.089844-9.375 5.628906-17.863281 15.007812-18.953125l35.851563-4.167969c11.855468-1.375 22.582031 7.117188 23.960937 18.972657zm0 0" fill="#ebad88"/><path d="m373.269531 118.703125h131.230469v153.25h-131.230469zm0 0" fill="#ff2c5c"/><path d="m474.5 118.703125h30v153.25h-30zm0 0" fill="#e62753"/><path d="m489.5 360h-467c-8.285156 0-15-6.714844-15-15s6.714844-15 15-15h467c8.28125 0 15 6.714844 15 15s-6.71875 15-15 15zm0 0" fill="#ffd659"/><path d="m489.5 330h-30c8.28125 0 15 6.714844 15 15s-6.71875 15-15 15h30c8.28125 0 15-6.714844 15-15s-6.71875-15-15-15zm0 0" fill="#ffbd54"/><path d="m346 157c0 8.285156-6.714844 15-15 15s-15-6.714844-15-15 6.714844-15 15-15 15 6.714844 15 15zm0 0" fill="#ff2c5c"/><path d="m504.5 111.191406h-24.667969c-4.140625 0-7.5 3.359375-7.5 7.5s3.359375 7.5 7.5 7.5h17.167969v138.253906h-116.230469v-48.703124h61.730469c4.140625 0 7.5-3.355469 7.5-7.5 0-4.140626-3.359375-7.5-7.5-7.5h-61.730469v-74.550782h67.0625c4.140625 0 7.5-3.359375 7.5-7.5s-3.359375-7.5-7.5-7.5h-67.152343c-.875-8.503906-8.082032-15.160156-16.8125-15.160156h-65.195313c-8.730469 0-15.9375 6.65625-16.8125 15.160156h-12.320313c-5.253906 0-10.351562-1.007812-15.1875-2.980468l60.839844-60.789063c5.203125-5.203125 8.066406-12.109375 8.066406-19.445313 0-7.335937-2.867187-14.242187-8.066406-19.445312-10.710937-10.707031-28.144531-10.710938-38.863281 0l-75.421875 75.355469-2.367188-1.078125c-5.171874-2.355469-11.121093-2.390625-16.320312-.09375l-83.179688 36.769531c-5.195312 2.296875-9.183593 6.714844-10.9375 12.117187-1.753906 5.40625-1.125 11.320313 1.734376 16.234376.722656 1.246093 1.503906 2.4375 2.328124 3.589843l-22.984374 9.597657c-2.785157 1.152343-5.167969 3.082031-6.914063 5.609374l-37.351563 54.664063c-3.9375 5.777344-2.882812 13.535156 2.453126 18.046875l5.195312 4.390625c1.5625 1.320313 3.273438 2.410156 5.078125 3.289063l-13.050781 13.039062c-.125.125-.230469.253906-.347656.382812-.144532.15625-.292969.3125-.429688.476563-.0625.078125-.117188.160156-.179688.242187-.175781.226563-.351562.457032-.511718.695313-.007813.011719-.011719.019531-.015625.03125-1.0625 1.609375-1.691407 3.457031-1.839844 5.402344-7.542969 4.636719-17.882813 15.917969-21.1796875 43.355469-.4257815 3.511718.7734375 6.964843 3.2851565 9.476562 2.179687 2.183594 5.074218 3.375 8.101562 3.375.457032 0 .917969-.027344 1.382813-.082031 27.457031-3.292969 38.75-13.625 43.386719-21.164063 2.636718-.203125 5.21875-1.304687 7.234374-3.316406l18.386719-18.371094c.03125-.03125.058594-.070312.089844-.101562l20.578125-20.566406c3.109375 2.308593 6.769531 3.875 10.695312 4.515624l.925782 7.949219c.757812 6.53125 4.015625 12.371094 9.171875 16.449219 4.386719 3.46875 9.691406 5.304688 15.1875 5.304688.960937 0 1.933593-.058594 2.902343-.171876l7.078126-.820312.558593 4.796875c.757813 6.527344 4.011719 12.367187 9.160157 16.445313 4.386718 3.476562 9.703124 5.320312 15.21875 5.320312.957031 0 1.921874-.058594 2.890624-.167969l18.472657-2.152343c12.246093-1.414063 22.027343-10.339844 24.925781-21.882813l10.695312-1.050781c4.492188-.441406 8.914063-1.460938 13.144532-3.03125 4.226562-1.566406 8.25-3.683594 11.953125-6.292969 5.257812-3.703125 11.429687-5.660156 17.839843-5.660156h9.289063c2.234375 6.722656 8.570313 11.59375 16.035156 11.59375h65.195313c7.464844 0 13.800781-4.871094 16.035156-11.59375h124.59375c4.140625 0 7.5-3.359375 7.5-7.5v-153.257813c0-4.140625-3.359375-7.5-7.5-7.5zm-217.570312-92.046875c4.871093-4.867187 12.792968-4.867187 17.65625-.003906 2.367187 2.367187 3.671874 5.507813 3.671874 8.835937 0 3.332032-1.304687 6.46875-3.667968 8.835938l-64.84375 64.785156-24.265625-11.066406zm-244.6875 213.132813-4.222657-3.570313 36.613281-53.585937c.074219-.105469.179688-.195313.304688-.246094l29.046875-12.128906c3.824219 2.492187 8.003906 4.382812 12.390625 5.601562l-33.136719 33.113282c-2.929687 2.925781-2.933593 7.675781-.003906 10.605468 1.464844 1.46875 3.382813 2.199219 5.304687 2.199219 1.917969 0 3.835938-.730469 5.300782-2.195313l42.941406-42.90625c1.261719-.242187 2.519531-.542968 3.773438-.902343l30.492187-8.71875c2.214844-.632813 4.582031.003906 6.175781 1.667969l1.402344 1.457031-41.269531 41.234375-24.074219 2.800781c-6.527344.757813-12.367188 4.011719-16.441406 9.164063-4.078125 5.148437-5.90625 11.578124-5.148438 18.105468l1.046875 9.019532c.183594 1.5625.507813 3.074218.960938 4.523437l-17.144531 17.136719-17.667969-17.65625 12.332031-12.320313c2.929688-2.929687 2.933594-7.679687.003906-10.609375-2.925781-2.929687-7.675781-2.929687-10.605468-.003906l-10.347657 10.335938c-2.828125.515624-5.800781-.242188-8.027343-2.121094zm13.101562 53.570312-5.527344-5.519531-12.144531-12.136719 10.601563-10.589844 17.671874 17.652344zm-39.722656 22.03125c2.964844-17.914062 9.320312-24.847656 13.074218-27.445312l3.289063 3.285156 11.113281 11.105469c-2.601562 3.746093-9.546875 10.097656-27.476562 13.054687zm92.015625-66.617187-1.046875-9.019531c-.296875-2.546876.417968-5.054688 2.007812-7.0625 1.589844-2.011719 3.867188-3.28125 6.414063-3.578126l26.503906-3.078124c.015625-.003907.03125-.003907.046875-.007813l9.300781-1.082031c.550781-.0625 1.101563-.09375 1.640625-.09375 7.058594 0 13.171875 5.304687 14.007813 12.480468.898437 7.757813-4.675781 14.800782-12.433594 15.703126l-35.800781 4.160156c-5.253906.609375-10.03125-3.167969-10.640625-8.421875zm32.039062 37.785156c-2.539062.296875-5.042969-.410156-7.046875-1.996094-2.011718-1.59375-3.28125-3.871093-3.578125-6.421875l-.816406-7 27.578125-3.207031c7.734375-.898437 14.660156-4.757813 19.492188-10.863281.636718-.804688 1.222656-1.632813 1.765624-2.488282 5.667969 1.308594 10.144532 6.0625 10.851563 12.121094.433594 3.757813-.617187 7.457032-2.964844 10.421875-2.347656 2.964844-5.707031 4.839844-9.464843 5.273438zm53.386719 23.421875-18.476562 2.148438c-2.550782.296874-5.054688-.417969-7.0625-2.007813-2.007813-1.589844-3.277344-3.867187-3.574219-6.417969l-.558594-4.796875 13.835937-1.605469c7.734376-.898437 14.65625-4.757812 19.492188-10.863281.6875-.871093 1.316406-1.773437 1.894531-2.699219 3.730469 2.195313 6.363281 6.050782 6.890625 10.570313.0625.535156.097656 1.125.097656 1.738281-.0625 7.125-5.449218 13.113282-12.539062 13.933594zm80.289062-38.023438c-9.523437 0-18.675781 2.90625-26.480468 8.398438-2.644532 1.863281-5.511719 3.375-8.53125 4.492188-3.023438 1.121093-6.1875 1.851562-9.394532 2.167968l-9.46875.929688c-2.402343-8.441406-8.503906-15.324219-16.472656-18.765625.039063-1.394531-.019531-2.796875-.183594-4.207031-1.40625-12.089844-10.089843-21.667969-21.246093-24.722657.066406-1.539062.015625-3.089843-.167969-4.648437-1.445312-12.433594-10.570312-22.148438-22.078125-24.9375l29.691406-29.667969 30.964844 32.226563c2.304687 2.398437 4.765625 4.703124 7.304687 6.851562 3.167969 2.671875 7.898438 2.277344 10.570313-.890625 2.671875-3.164063 2.277344-7.894531-.890625-10.570313-2.144531-1.8125-4.222656-3.757812-6.167969-5.785156l-42.765625-44.503906c-5.453125-5.675781-13.546875-7.859375-21.117187-5.691406l-30.488281 8.71875c-13 3.71875-26.832032-1.851563-33.628907-13.542969-.980469-1.683594-.691406-3.269531-.433593-4.0625.257812-.792969.957031-2.246094 2.734374-3.03125l83.183594-36.769531c1.28125-.566406 2.75-.558594 4.03125.023437l54.28125 24.75c7.25 3.304688 14.96875 4.984375 22.941406 4.984375h12.230469l-.003906 94.46875-10.316406-2.351562c-3.160157-.722656-6.3125-1.640625-9.367188-2.738282-3.898437-1.394531-8.195312.632813-9.589843 4.535157-1.398438 3.898437.632812 8.191406 4.53125 9.589843 3.617187 1.296876 7.351562 2.386719 11.09375 3.238282l13.648437 3.113281v28.398437zm92.417969 9.691407c0 1.050781-.851562 1.902343-1.902343 1.902343h-65.195313c-1.046875 0-1.902344-.851562-1.902344-1.902343v-161.203125c0-1.046875.855469-1.898438 1.902344-1.898438h65.195313c1.050781 0 1.902343.851563 1.902343 1.898438zm0 0"/><path d="m489.5 322.5h-467c-12.40625 0-22.5 10.09375-22.5 22.5s10.09375 22.5 22.5 22.5h467c12.40625 0 22.5-10.09375 22.5-22.5s-10.09375-22.5-22.5-22.5zm0 30h-467c-4.136719 0-7.5-3.363281-7.5-7.5s3.363281-7.5 7.5-7.5h467c4.136719 0 7.5 3.363281 7.5 7.5s-3.363281 7.5-7.5 7.5zm0 0"/><path d="m331 134.492188c-12.40625 0-22.5 10.09375-22.5 22.5s10.09375 22.5 22.5 22.5 22.5-10.09375 22.5-22.5-10.09375-22.5-22.5-22.5zm0 30c-4.136719 0-7.5-3.363282-7.5-7.5 0-4.136719 3.363281-7.5 7.5-7.5s7.5 3.363281 7.5 7.5c0 4.136718-3.363281 7.5-7.5 7.5zm0 0"/></svg>