<svg id="Layer_1" enable-background="new 0 0 512 512" height="512" viewBox="0 0 512 512" width="512" xmlns="http://www.w3.org/2000/svg"><g><g clip-rule="evenodd" fill-rule="evenodd"><path d="m256 256c41.422 0 75 33.579 75 75 0 41.323-33.419 74.841-74.705 75 82.707-.159 149.705-67.256 149.705-150 0-82.843-67.157-150-150-150-41.421 0-75 33.579-75 75 0 41.422 33.579 75 75 75zm0-89.962c11.046 0 20 8.954 20 20s-8.954 20-20 20-20-8.954-20-20 8.954-20 20-20z" fill="#8690af"/><ellipse cx="256" cy="186.038" fill="#fff" rx="20" ry="20" transform="matrix(.974 -.228 .228 .974 -35.649 63.209)"/><path d="m256 256c-41.421 0-75-33.579-75-75s33.579-75 75-75c-82.843 0-150 67.157-150 150s67.157 150 150 150h.295c41.286-.159 74.705-33.677 74.705-75 0-41.421-33.578-75-75-75zm0 55c11.046 0 20 8.954 20 20s-8.954 20-20 20-20-8.954-20-20 8.954-20 20-20z" fill="#fff"/><ellipse cx="256" cy="331" fill="#8690af" rx="20" ry="20" transform="matrix(.707 -.707 .707 .707 -159.072 277.967)"/><path d="m106 256c0-82.843 67.157-150 150-150s150 67.157 150 150c0 82.744-66.998 149.841-149.705 150-.098 0-.196.001-.295 0-82.843 0-150-67.157-150-150zm-51-83.255.002 166.512 117.743 117.743 166.512-.002 117.743-117.743-.002-166.512-117.742-117.743-166.511.001zm201 233.255h.295c-.099 0-.197 0-.295 0z" fill="#ffc144"/><path d="m172.745 55.001 166.511-.001 117.743 117.744.001 166.511-117.743 117.743-166.512.002-117.743-117.743-.002-166.512zm178.991-45.001-191.471.001c-3.807.001-7.613 1.453-10.517 4.357l-135.313 135.312c-2.737 2.698-4.435 6.448-4.435 10.595l.002 191.47c0 3.806 1.452 7.613 4.356 10.517l135.312 135.313c2.698 2.737 6.447 4.435 10.594 4.435l191.471-.002c3.807 0 7.613-1.452 10.517-4.356l135.313-135.313c2.737-2.698 4.435-6.447 4.435-10.594l-.002-191.47c0-3.807-1.452-7.613-4.356-10.517l-135.312-135.313c-2.698-2.737-6.447-4.435-10.594-4.435z" fill="#d1a184"/></g><g><path d="m511.998 160.265c0-6.644-2.587-12.891-7.285-17.588l-135.26-135.261c-4.713-4.783-11.005-7.416-17.717-7.416l-191.471.001c-.001 0-.002 0-.002 0-6.645.001-12.891 2.589-17.586 7.286l-135.261 135.261c-4.783 4.713-7.416 11.005-7.416 17.717l.002 191.47c0 6.644 2.587 12.891 7.285 17.588l135.261 135.261c4.712 4.782 11.004 7.416 17.717 7.416l191.471-.002c6.644 0 12.89-2.587 17.588-7.285l135.26-135.261c4.782-4.712 7.416-11.004 7.416-17.717zm-21.504 194.993-135.312 135.312c-1.242 1.242-2.692 1.428-3.446 1.428l-191.471.002c-1.774 0-2.936-.911-3.523-1.506l-135.313-135.313c-1.242-1.242-1.427-2.692-1.427-3.446l-.002-191.47c0-1.773.911-2.937 1.506-3.523l135.314-135.313c1.241-1.242 2.693-1.428 3.448-1.428h-.002l191.47-.001c1.773 0 2.937.911 3.523 1.506l135.312 135.313c1.242 1.242 1.427 2.692 1.427 3.446l.002 191.47c0 1.774-.911 2.936-1.506 3.523z"/><path d="m464.07 165.672-117.743-117.743c-1.875-1.875-4.419-2.929-7.071-2.929h-166.511c-2.652 0-5.196 1.054-7.071 2.929l-27.051 27.051c-3.905 3.905-3.905 10.237 0 14.143s10.237 3.905 14.143 0l24.121-24.123h158.227l111.885 111.886.001 158.227-111.885 111.886-158.228.001-111.886-111.885-.001-158.228 24.125-24.125c3.905-3.905 3.905-10.237 0-14.143s-10.237-3.905-14.143 0l-27.054 27.054c-1.875 1.875-2.929 4.419-2.929 7.071l.001 166.512c0 2.652 1.054 5.196 2.929 7.071l117.743 117.743c1.875 1.875 4.419 2.929 7.071 2.929l166.512-.001c2.652 0 5.196-1.054 7.071-2.929l117.743-117.743c1.875-1.875 2.929-4.419 2.929-7.071l-.001-166.512c.002-2.652-1.052-5.195-2.927-7.071z"/><path d="m255.987 416c.004 0 .009.001.013.001.013 0 .025-.001.038-.001 88.207-.021 159.962-71.788 159.962-160 0-88.225-71.776-160-160-160-88.225 0-160 71.776-160 160 0 88.22 71.769 159.992 159.987 160zm140.013-160c0 50.852-27.256 95.455-67.924 119.978 8.178-13.056 12.924-28.47 12.924-44.978 0-46.869-38.131-85-85-85-35.841 0-65-29.159-65-65s29.159-65 65-65h.008c77.193.004 139.992 62.806 139.992 140zm-212.077-119.977c-8.176 13.055-12.923 28.469-12.923 44.977 0 46.869 38.131 85 85 85 35.841 0 65 29.159 65 65 0 35.829-29.138 64.979-64.962 65-.013 0-.025 0-.038 0-77.196 0-140-62.804-140-140 0-50.852 27.256-95.454 67.923-119.977z"/><path d="m256 156.038c-16.542 0-30 13.458-30 30s13.458 30 30 30 30-13.458 30-30-13.458-30-30-30zm0 40c-5.514 0-10-4.486-10-10s4.486-10 10-10 10 4.486 10 10-4.486 10-10 10z"/><path d="m256 361c16.542 0 30-13.458 30-30s-13.458-30-30-30-30 13.458-30 30 13.458 30 30 30zm0-40c5.514 0 10 4.486 10 10s-4.486 10-10 10-10-4.486-10-10 4.486-10 10-10z"/><path d="m113.879 123.873c5.523 0 10-4.477 10-10s-4.477-10-10-10h-.007c-5.523 0-9.996 4.477-9.996 10s4.48 10 10.003 10z"/></g></g></svg>