<svg height="512pt" viewBox="0 0 512 512.14528" width="512pt" xmlns="http://www.w3.org/2000/svg"><path d="m307.273438 460.945312 13.570312 13.566407c4.859375 4.890625 6.300781 12.226562 3.648438 18.59375-2.648438 6.367187-8.871094 10.511719-15.765626 10.507812h-283.050781c-9.414062-.03125-17.039062-7.652343-17.066406-17.066406v-283.050781c-.007813-6.898438 4.136719-13.121094 10.503906-15.769532 6.367188-2.652343 13.703125-1.210937 18.59375 3.652344l192.765625 192.765625" fill="#e91e63"/><path d="m392.609375 149.476562c-.007813 12.984376-1.785156 25.902344-5.292969 38.402344l-156.84375 100.777344c-6.429687-.984375-12.789062-2.410156-19.027344-4.265625-2.21875-.683594-4.351562-1.367187-6.570312-2.132813-62.398438-22.042968-101.027344-84.5625-92.816406-150.230468 8.210937-65.667969 61.042968-116.753906 126.949218-122.75 4.253907-.417969 8.527344-.617188 12.800782-.597656 77.761718 0 140.800781 63.035156 140.800781 140.796874zm0 0" fill="#0377bc"/><path d="m247.542969 187.878906h238.929687c9.425782 0 17.070313 7.640625 17.070313 17.066406v238.933594c0 9.425782-7.644531 17.066406-17.070313 17.066406h-238.929687c-9.425781 0-17.070313-7.640624-17.070313-17.066406v-238.933594c0-9.425781 7.644532-17.066406 17.070313-17.066406zm0 0" fill="#ff9801"/><path d="m367.007812 149.476562c-.003906 12.984376-1.785156 25.902344-5.289062 38.402344l-131.246094 84.308594-19.027344 12.203125-6.570312 4.265625v-6.398438c-62.398438-22.042968-101.027344-84.5625-92.816406-150.230468 8.210937-65.667969 61.042968-116.753906 126.949218-122.75 72.511719 6.582031 128.027344 67.390625 128 140.199218zm0 0" fill="#02a9f4"/><path d="m247.542969 187.878906h213.332031c9.425781 0 17.066406 7.640625 17.066406 17.066406v238.933594c0 9.425782-7.640625 17.066406-17.066406 17.066406h-213.332031c-9.425781 0-17.070313-7.640624-17.070313-17.066406v-238.933594c0-9.425781 7.644532-17.066406 17.070313-17.066406zm0 0" fill="#fec108"/><path d="m486.472656 179.34375h-88.359375c12.140625-59.175781-12.570312-119.84375-62.605469-153.695312-50.035156-33.851563-115.539062-34.222657-165.957031-.941407-50.414062 33.285157-75.8125 93.664063-64.34375 152.976563s57.542969 105.871094 116.734375 117.960937v67.902344l-178.203125-178.226563c-7.253906-7.402343-18.308593-9.597656-27.84375-5.53125-9.660156 3.878907-15.9453122 13.296876-15.8203122 23.707032v283.050781c0 14.136719 11.4609372 25.597656 25.6015622 25.597656h283.050781c10.109376.035157 19.289063-5.902343 23.40625-15.136719 4.117188-9.234374 2.402344-20.027343-4.378906-27.53125h158.71875c14.140625 0 25.601563-11.460937 25.601563-25.597656v-238.933594c0-14.136718-11.460938-25.601562-25.601563-25.601562zm-366.929687-29.867188c.003906-50.855468 29.167969-97.207031 75.015625-119.21875 45.84375-22.015624 100.253906-15.792968 139.945312 16.003907 39.691406 31.800781 57.636719 83.539062 46.15625 133.082031h-133.117187c-14.140625 0-25.601563 11.464844-25.601563 25.601562v73.316407c-59.773437-14.136719-102.09375-67.363281-102.398437-128.785157zm195.265625 331.09375c2.460937 2.398438 3.195312 6.058594 1.851562 9.21875-1.289062 3.230469-4.4375 5.335938-7.917968 5.289063h-283.066407c-4.714843 0-8.535156-3.820313-8.535156-8.53125v-283.050781c-.046875-3.480469 2.058594-6.632813 5.292969-7.921875 3.160156-1.359375 6.835937-.628907 9.238281 1.835937l190.269531 190.269532v56.199218c0 14.136719 11.460938 25.597656 25.601563 25.597656h56.199219zm180.199218-36.691406c0 4.710938-3.820312 8.53125-8.535156 8.53125h-238.929687c-4.714844 0-8.535157-3.820312-8.535157-8.53125v-238.933594c0-4.714843 3.820313-8.535156 8.535157-8.535156h238.929687c4.714844 0 8.535156 3.820313 8.535156 8.535156zm0 0"/><path d="m281.675781 213.476562h-17.066406c-4.714844 0-8.535156 3.824219-8.535156 8.535157 0 4.714843 3.820312 8.535156 8.535156 8.535156h17.066406c4.710938 0 8.53125-3.820313 8.53125-8.535156 0-4.710938-3.820312-8.535157-8.53125-8.535157zm0 0"/><path d="m392.609375 213.476562h-76.800781c-4.714844 0-8.535156 3.824219-8.535156 8.535157 0 4.714843 3.820312 8.535156 8.535156 8.535156h76.800781c4.710937 0 8.53125-3.820313 8.53125-8.535156 0-4.710938-3.820313-8.535157-8.53125-8.535157zm0 0"/><path d="m42.742188 239.078125c-4.714844 0-8.535157 3.820313-8.535157 8.535156v17.066407c0 4.710937 3.820313 8.53125 8.535157 8.53125 4.710937 0 8.53125-3.820313 8.53125-8.53125v-17.066407c0-4.714843-3.820313-8.535156-8.53125-8.535156zm0 0"/><path d="m42.742188 290.277344c-4.714844 0-8.535157 3.820312-8.535157 8.535156v76.800781c0 4.710938 3.820313 8.53125 8.535157 8.53125 4.710937 0 8.53125-3.820312 8.53125-8.53125v-76.800781c0-4.714844-3.820313-8.535156-8.53125-8.535156zm0 0"/><path d="m191.945312 52.566406c-28.914062 18.886719-48.859374 48.765625-55.21875 82.710938-.769531 4.644531 2.363282 9.035156 7.007813 9.816406.464844.078125.933594.121094 1.40625.117188 4.167969-.003907 7.722656-3.019532 8.40625-7.132813 5.714844-28.953125 22.691406-54.453125 47.199219-70.894531 3.96875-2.460938 5.226562-7.65625 2.8125-11.660156-2.410156-4-7.589844-5.320313-11.621094-2.957032zm0 0"/></svg>