<svg id="Capa_1" enable-background="new 0 0 512 512" height="512" viewBox="0 0 512 512" width="512" xmlns="http://www.w3.org/2000/svg"><g><g><path d="m446.472 445.083 4.986-15.705v-401.956c0-11.014-8.929-19.943-19.943-19.943h-283.512c-11.014 0-19.943 8.929-19.943 19.943v401.957l4.986 15.705h313.426z" fill="#61a2f9"/></g><g><path d="m431.515 7.479h-15.907v437.605h30.865l4.986-15.705v-401.957c-.001-11.015-8.93-19.943-19.944-19.943z" fill="#4a81f6"/></g><g><path d="m128.06 429.378v55.2c0 11.014 8.929 19.943 19.943 19.943h283.512c11.014 0 19.943-8.929 19.943-19.943v-55.2z" fill="#dae7ef"/></g><g><path d="m415.608 429.378v19.35c0 11.014-8.929 19.943-19.943 19.943h-267.605v15.907c0 11.014 8.929 19.943 19.943 19.943h283.512c11.014 0 19.943-8.929 19.943-19.943v-55.2z" fill="#c1d5e4"/></g><g><g><path d="m101.935 185.246v-110.06l13.479-4.986h54.518l12.772 4.986v110.06l-12.772 4.986h-54.518z" fill="#f6f9f9"/></g><g><path d="m101.935 166.262v18.984l13.479 4.986h54.518l12.772-4.986v-18.984z" fill="#dae7ef"/></g><g><path d="m169.932 190.232v-120.032h44.518c5.523 0 10 4.477 10 10v100.031c0 5.523-4.477 10-10 10h-44.518z" fill="#dd5790"/></g><g><path d="m60.896 180.232v-100.032c0-5.523 4.477-10 10-10h44.518v120.031h-44.518c-5.523.001-10-4.477-10-9.999z" fill="#86f1a7"/></g><g><path d="m214.479 70.2h-14.352v86.09c0 5.507-4.464 9.971-9.971 9.971h-20.223v23.97h44.547c5.507 0 9.971-4.464 9.971-9.971v-100.088c-.001-5.507-4.465-9.972-9.972-9.972z" fill="#da387d"/></g><g><path d="m60.896 166.262v13.998c0 5.507 4.464 9.971 9.971 9.971h44.547v-23.97h-54.518z" fill="#78d090"/></g></g><g><g><path d="m219.111 344.403h-153.583l-4.986-8.6v-40.011l4.986-8.974h153.583l4.985 8.974v40.011z" fill="#dd5790"/></g><g><path d="m219.111 286.818h-18.984v55.054c0 .876-.124 1.722-.337 2.531h19.321l4.986-8.6v-40.01z" fill="#da387d"/></g><g><path d="m224.096 295.792h-163.554v-30.01c0-5.523 4.477-10 10-10h143.554c5.523 0 10 4.477 10 10z" fill="#407093"/></g><g><path d="m214.096 375.813h-143.554c-5.523 0-10-4.477-10-10v-30.01h163.554v30.01c0 5.523-4.477 10-10 10z" fill="#f6e266"/></g><g><path d="m200.127 335.803v6.069c0 5.507-4.464 9.971-9.971 9.971h-129.614v13.998c0 5.507 4.464 9.971 9.971 9.971h143.611c5.507 0 9.971-4.464 9.971-9.971v-30.039h-23.968z" fill="#ecc32e"/></g><g><path d="m214.125 255.782h-13.998v40.01h23.97v-30.039c-.001-5.507-4.465-9.971-9.972-9.971z" fill="#2b4d66"/></g></g><g><path d="m451.458 368.334c-4.13 0-7.479 3.348-7.479 7.479v46.087h-308.441v-38.609h78.586c9.622 0 17.45-7.828 17.45-17.45v-100.088c0-9.622-7.828-17.45-17.45-17.45h-78.586v-14.195c0-4.13-3.348-7.479-7.479-7.479s-7.479 3.348-7.479 7.479v14.195h-50.066c-9.622 0-17.45 7.828-17.45 17.45v100.088c0 9.622 7.828 17.45 17.45 17.45h50.068v101.287c0 15.12 12.301 27.421 27.421 27.421h283.512c15.12 0 27.421-12.301 27.421-27.421v-108.765c0-4.13-3.348-7.479-7.478-7.479zm-383.437-65.063h148.597v25.053h-148.597zm2.493-40.011h143.611c1.374 0 2.493 1.118 2.493 2.493v22.56h-148.597v-22.56c0-1.374 1.118-2.493 2.493-2.493zm-2.493 102.581v-22.56h148.597v22.56c0 1.374-1.118 2.493-2.493 2.493h-143.611c-1.375 0-2.493-1.118-2.493-2.493zm363.494 131.202h-283.512c-6.873 0-12.464-5.591-12.464-12.464v-47.721h308.441v47.721c-.001 6.872-5.592 12.464-12.465 12.464z"/><path d="m431.515 0h-187.851c-4.13 0-7.479 3.348-7.479 7.479s3.348 7.479 7.479 7.479h187.851c6.873 0 12.464 5.591 12.464 12.464v309.838c0 4.13 3.348 7.479 7.479 7.479 4.13 0 7.479-3.348 7.479-7.479v-309.839c-.001-15.12-12.302-27.421-27.422-27.421z"/><path d="m313.878 461.466h-48.238c-4.13 0-7.479 3.348-7.479 7.479 0 4.13 3.348 7.479 7.479 7.479h48.238c4.13 0 7.479-3.348 7.479-7.479s-3.349-7.479-7.479-7.479z"/><path d="m70.868 197.71h143.611c9.622 0 17.45-7.828 17.45-17.45v-100.088c0-9.622-7.828-17.45-17.45-17.45h-78.94v-35.3c0-6.873 5.591-12.464 12.464-12.464h58.152c4.13 0 7.479-3.348 7.479-7.479s-3.349-7.479-7.48-7.479h-58.152c-15.12 0-27.421 12.301-27.421 27.421v35.3h-49.713c-9.622 0-17.45 7.828-17.45 17.45v100.089c0 9.622 7.828 17.45 17.45 17.45zm91.586-120.031v105.074h-39.561v-105.074zm54.518 2.493v100.088c0 1.374-1.118 2.493-2.493 2.493h-37.068v-105.074h37.068c1.374 0 2.493 1.118 2.493 2.493zm-148.597 0c0-1.374 1.118-2.493 2.493-2.493h37.068v105.074h-37.068c-1.374 0-2.493-1.118-2.493-2.493z"/><path d="m311.271 168.587c-9.211 0-18.105-3.746-23.792-10.021-2.774-3.061-7.503-3.293-10.564-.52-3.061 2.774-3.293 7.503-.52 10.563 8.475 9.352 21.512 14.935 34.875 14.935 16.001 0 29.941-10.493 32.425-24.408 1.879-10.524-3.052-24.328-22.527-31.512-10.837-3.997-20.888-8.362-23.42-9.474-2.699-1.976-4.01-5.135-3.519-8.552.617-4.297 3.918-7.746 8.83-9.226 13.508-4.069 25.708 5.701 25.973 5.917 3.162 2.633 7.861 2.218 10.511-.934 2.657-3.162 2.249-7.879-.912-10.537-.743-.625-18.449-15.224-39.885-8.767-10.474 3.155-17.878 11.363-19.322 21.422-1.344 9.364 2.711 18.37 10.584 23.503.331.215.677.404 1.038.565.483.216 11.986 5.336 24.947 10.117 9.32 3.437 14.051 8.85 12.979 14.85-1.046 5.856-7.605 12.079-17.701 12.079z"/><path d="m367.97 89.195v88.054c0 4.13 3.348 7.479 7.479 7.479 4.13 0 7.479-3.348 7.479-7.479v-88.054c0-4.13-3.348-7.479-7.479-7.479-4.13.001-7.479 3.349-7.479 7.479z"/><path d="m371.269 42.269c-1.717-3.756-6.155-5.406-9.912-3.691-3.756 1.718-5.409 6.155-3.691 9.912l7.562 16.538c1.721 3.795 6.243 5.394 9.912 3.691 3.756-1.718 5.409-6.155 3.691-9.912z"/><ellipse cx="279.508" cy="233.111" rx="7.827" ry="7.827" transform="matrix(.973 -.23 .23 .973 -46.081 70.454)"/><path d="m279.508 259.09c-4.13 0-7.479 3.348-7.479 7.479v131.411c0 4.13 3.348 7.479 7.479 7.479 4.13 0 7.479-3.348 7.479-7.479v-131.411c0-4.131-3.348-7.479-7.479-7.479z"/><path d="m306.425 311.63c0 25.048 20.378 45.426 45.426 45.426 11.713 0 22.404-4.458 30.468-11.764v9.331c0 4.13 3.348 7.479 7.479 7.479s7.479-3.348 7.479-7.479v-85.986c0-4.13-3.348-7.479-7.479-7.479s-7.479 3.348-7.479 7.479v9.331c-8.064-7.306-18.755-11.764-30.468-11.764-25.048 0-45.426 20.378-45.426 45.426zm75.894 0c0 16.801-13.668 30.468-30.468 30.468s-30.468-13.668-30.468-30.468c0-16.801 13.668-30.468 30.468-30.468s30.468 13.667 30.468 30.468z"/></g></g></svg>